<mxfile host="Electron" modified="2024-09-08T15:10:55.722Z" agent="Mozilla/5.0 (Windows NT 10.0; Win64; x64) AppleWebKit/537.36 (KHTML, like Gecko) draw.io/24.4.13 Chrome/124.0.6367.207 Electron/30.0.6 Safari/537.36" etag="pltyPjOsRr9OmW6qwyt_" version="24.4.13" type="device" pages="2">
  <diagram id="N4iRV68BVkmkfJKtZu4H" name="Page-2">
    <mxGraphModel dx="1434" dy="956" grid="1" gridSize="10" guides="1" tooltips="1" connect="1" arrows="1" fold="1" page="1" pageScale="1" pageWidth="827" pageHeight="1169" math="0" shadow="0">
      <root>
        <mxCell id="0" />
        <mxCell id="1" parent="0" />
        <mxCell id="8HNGC6IebJeWQwQANR_L-3" value="" style="edgeStyle=orthogonalEdgeStyle;rounded=1;orthogonalLoop=1;jettySize=auto;html=1;fontSize=10;labelBackgroundColor=none;strokeColor=#457B9D;fontColor=default;fontFamily=Helvetica;fontStyle=0;" parent="1" source="8HNGC6IebJeWQwQANR_L-4" target="8HNGC6IebJeWQwQANR_L-9" edge="1">
          <mxGeometry relative="1" as="geometry" />
        </mxCell>
        <mxCell id="8HNGC6IebJeWQwQANR_L-4" value="Start" style="strokeWidth=1;html=1;shape=mxgraph.flowchart.terminator;whiteSpace=wrap;rounded=1;shadow=1;labelBackgroundColor=none;fontFamily=Helvetica;fontSize=10;align=center;fillColor=#76608a;strokeColor=#432D57;fontColor=#ffffff;fontStyle=0;" parent="1" vertex="1">
          <mxGeometry x="190" y="90" width="60" height="30" as="geometry" />
        </mxCell>
        <mxCell id="8HNGC6IebJeWQwQANR_L-5" value="" style="edgeStyle=orthogonalEdgeStyle;rounded=1;orthogonalLoop=1;jettySize=auto;html=1;fontSize=10;labelBackgroundColor=none;strokeColor=#457B9D;fontColor=default;fontFamily=Helvetica;entryX=0;entryY=0.5;entryDx=0;entryDy=0;fontStyle=0;" parent="1" source="mjoHUaqumo3DgvZ4HPl7-24" target="mjoHUaqumo3DgvZ4HPl7-43" edge="1">
          <mxGeometry relative="1" as="geometry" />
        </mxCell>
        <mxCell id="mjoHUaqumo3DgvZ4HPl7-27" value="No" style="edgeLabel;html=1;align=center;verticalAlign=middle;resizable=0;points=[];labelBackgroundColor=none;fontColor=#000033;fontFamily=Helvetica;fontSize=12;rounded=1;fontStyle=0;" parent="8HNGC6IebJeWQwQANR_L-5" vertex="1" connectable="0">
          <mxGeometry x="-0.6398" relative="1" as="geometry">
            <mxPoint x="-14" y="-10" as="offset" />
          </mxGeometry>
        </mxCell>
        <mxCell id="8HNGC6IebJeWQwQANR_L-7" value="" style="edgeStyle=orthogonalEdgeStyle;rounded=1;orthogonalLoop=1;jettySize=auto;html=1;fontSize=10;labelBackgroundColor=none;strokeColor=#457B9D;fontColor=default;fontFamily=Helvetica;fontStyle=0;" parent="1" source="8HNGC6IebJeWQwQANR_L-9" target="8HNGC6IebJeWQwQANR_L-14" edge="1">
          <mxGeometry relative="1" as="geometry" />
        </mxCell>
        <mxCell id="8HNGC6IebJeWQwQANR_L-8" value="Production,&lt;div style=&quot;font-size: 12px;&quot;&gt;Business-critical&lt;/div&gt;" style="edgeLabel;html=1;align=center;verticalAlign=middle;resizable=0;points=[];fontSize=12;labelBackgroundColor=none;fontColor=#000033;fontFamily=Helvetica;rounded=1;fontStyle=0;" parent="8HNGC6IebJeWQwQANR_L-7" vertex="1" connectable="0">
          <mxGeometry x="-0.475" y="1" relative="1" as="geometry">
            <mxPoint x="43" y="-7" as="offset" />
          </mxGeometry>
        </mxCell>
        <mxCell id="8HNGC6IebJeWQwQANR_L-9" value="&lt;div style=&quot;font-size: 10px;&quot;&gt;Workload&lt;/div&gt;Purpose" style="rhombus;whiteSpace=wrap;html=1;fontSize=10;fontFamily=Helvetica;strokeWidth=1;rounded=1;shadow=1;labelBackgroundColor=none;fillColor=#A8DADC;strokeColor=#457B9D;fontColor=#1D3557;fontStyle=0;aspect=fixed;" parent="1" vertex="1">
          <mxGeometry x="170" y="180" width="100" height="100" as="geometry" />
        </mxCell>
        <mxCell id="8HNGC6IebJeWQwQANR_L-10" value="Free" style="whiteSpace=wrap;html=1;fontSize=16;fontFamily=Helvetica;strokeWidth=1;rounded=1;shadow=1;labelBackgroundColor=none;fillColor=#76608a;strokeColor=#432D57;fontColor=#ffffff;fontStyle=0;" parent="1" vertex="1">
          <mxGeometry x="610" y="80" width="120" height="60" as="geometry" />
        </mxCell>
        <mxCell id="8HNGC6IebJeWQwQANR_L-11" style="edgeStyle=orthogonalEdgeStyle;rounded=1;orthogonalLoop=1;jettySize=auto;html=1;fontSize=10;labelBackgroundColor=none;strokeColor=#457B9D;fontColor=default;fontFamily=Helvetica;fontStyle=0;entryX=0;entryY=0.5;entryDx=0;entryDy=0;" parent="1" source="8HNGC6IebJeWQwQANR_L-14" target="mjoHUaqumo3DgvZ4HPl7-48" edge="1">
          <mxGeometry relative="1" as="geometry">
            <mxPoint x="400" y="395" as="targetPoint" />
            <Array as="points">
              <mxPoint x="340" y="395" />
              <mxPoint x="340" y="551" />
            </Array>
          </mxGeometry>
        </mxCell>
        <mxCell id="8HNGC6IebJeWQwQANR_L-12" value="Small Scale" style="edgeLabel;html=1;align=center;verticalAlign=middle;resizable=0;points=[];fontSize=12;labelBackgroundColor=none;fontColor=#000033;fontFamily=Helvetica;rounded=1;fontStyle=0;" parent="8HNGC6IebJeWQwQANR_L-11" vertex="1" connectable="0">
          <mxGeometry x="-0.712" relative="1" as="geometry">
            <mxPoint x="-13" y="-10" as="offset" />
          </mxGeometry>
        </mxCell>
        <mxCell id="8HNGC6IebJeWQwQANR_L-13" value="" style="edgeStyle=orthogonalEdgeStyle;rounded=1;orthogonalLoop=1;jettySize=auto;html=1;fontSize=10;labelBackgroundColor=none;strokeColor=#457B9D;fontColor=default;fontFamily=Helvetica;fontStyle=0;" parent="1" source="8HNGC6IebJeWQwQANR_L-14" target="8HNGC6IebJeWQwQANR_L-21" edge="1">
          <mxGeometry relative="1" as="geometry" />
        </mxCell>
        <mxCell id="mjoHUaqumo3DgvZ4HPl7-35" value="Large Scale" style="edgeLabel;html=1;align=center;verticalAlign=middle;resizable=0;points=[];hachureGap=4;strokeColor=#457B9D;fontFamily=Helvetica;fontColor=#000033;fillColor=#A8DADC;fontSize=12;labelBackgroundColor=none;rounded=1;fontStyle=0;" parent="8HNGC6IebJeWQwQANR_L-13" vertex="1" connectable="0">
          <mxGeometry x="-0.3555" relative="1" as="geometry">
            <mxPoint x="34" y="-11" as="offset" />
          </mxGeometry>
        </mxCell>
        <mxCell id="8HNGC6IebJeWQwQANR_L-14" value="Traffic Load" style="rhombus;whiteSpace=wrap;html=1;fontSize=10;fontFamily=Helvetica;strokeWidth=1;rounded=1;shadow=1;labelBackgroundColor=none;fillColor=#A8DADC;strokeColor=#457B9D;fontColor=#1D3557;aspect=fixed;fontStyle=0;" parent="1" vertex="1">
          <mxGeometry x="170" y="345" width="100" height="100" as="geometry" />
        </mxCell>
        <mxCell id="8HNGC6IebJeWQwQANR_L-15" value="" style="edgeStyle=orthogonalEdgeStyle;rounded=1;orthogonalLoop=1;jettySize=auto;html=1;fontSize=10;labelBackgroundColor=none;strokeColor=#457B9D;fontColor=default;fontFamily=Helvetica;fontStyle=0;entryX=0;entryY=0.5;entryDx=0;entryDy=0;" parent="1" source="8HNGC6IebJeWQwQANR_L-21" target="mjoHUaqumo3DgvZ4HPl7-48" edge="1">
          <mxGeometry relative="1" as="geometry" />
        </mxCell>
        <mxCell id="8HNGC6IebJeWQwQANR_L-16" value="No" style="edgeLabel;html=1;align=center;verticalAlign=middle;resizable=0;points=[];fontSize=12;labelBackgroundColor=none;fontColor=#000033;fontFamily=Helvetica;rounded=1;fontStyle=0;" parent="8HNGC6IebJeWQwQANR_L-15" vertex="1" connectable="0">
          <mxGeometry x="-0.5" y="2" relative="1" as="geometry">
            <mxPoint x="-29" y="-9" as="offset" />
          </mxGeometry>
        </mxCell>
        <mxCell id="8HNGC6IebJeWQwQANR_L-19" value="" style="edgeStyle=orthogonalEdgeStyle;rounded=1;orthogonalLoop=1;jettySize=auto;html=1;fontSize=10;labelBackgroundColor=none;strokeColor=#457B9D;fontColor=default;fontFamily=Helvetica;fontStyle=0;" parent="1" source="8HNGC6IebJeWQwQANR_L-21" target="8HNGC6IebJeWQwQANR_L-26" edge="1">
          <mxGeometry relative="1" as="geometry" />
        </mxCell>
        <mxCell id="mjoHUaqumo3DgvZ4HPl7-19" value="Yes" style="edgeLabel;html=1;align=center;verticalAlign=middle;resizable=0;points=[];fontSize=12;labelBackgroundColor=none;fontColor=#000033;fontFamily=Helvetica;rounded=1;fontStyle=0;" parent="8HNGC6IebJeWQwQANR_L-19" vertex="1" connectable="0">
          <mxGeometry x="-0.4362" relative="1" as="geometry">
            <mxPoint x="13" y="-8" as="offset" />
          </mxGeometry>
        </mxCell>
        <mxCell id="8HNGC6IebJeWQwQANR_L-21" value="Auto-scaling" style="rhombus;whiteSpace=wrap;html=1;fontSize=10;fontFamily=Helvetica;strokeWidth=1;rounded=1;shadow=1;labelBackgroundColor=none;fillColor=#A8DADC;strokeColor=#457B9D;fontColor=#1D3557;aspect=fixed;fontStyle=0;" parent="1" vertex="1">
          <mxGeometry x="170" y="501" width="100" height="100" as="geometry" />
        </mxCell>
        <mxCell id="8HNGC6IebJeWQwQANR_L-22" value="Basic" style="whiteSpace=wrap;html=1;fontSize=16;fontFamily=Helvetica;strokeWidth=1;rounded=1;shadow=1;labelBackgroundColor=none;fillColor=#76608a;strokeColor=#432D57;fontColor=#ffffff;fontStyle=0;" parent="1" vertex="1">
          <mxGeometry x="404" y="365" width="120" height="60" as="geometry" />
        </mxCell>
        <mxCell id="mjoHUaqumo3DgvZ4HPl7-4" value="" style="edgeStyle=orthogonalEdgeStyle;rounded=1;orthogonalLoop=1;jettySize=auto;html=1;fontSize=10;labelBackgroundColor=none;strokeColor=#457B9D;fontColor=default;fontFamily=Helvetica;fontStyle=0;" parent="1" target="mjoHUaqumo3DgvZ4HPl7-3" edge="1">
          <mxGeometry relative="1" as="geometry">
            <mxPoint x="220" y="755" as="sourcePoint" />
          </mxGeometry>
        </mxCell>
        <mxCell id="mjoHUaqumo3DgvZ4HPl7-56" value="Yes" style="edgeLabel;html=1;align=center;verticalAlign=middle;resizable=0;points=[];rounded=1;strokeColor=#457B9D;fontColor=#1D3557;fillColor=#A8DADC;fontSize=12;" parent="mjoHUaqumo3DgvZ4HPl7-4" vertex="1" connectable="0">
          <mxGeometry x="-0.3219" y="2" relative="1" as="geometry">
            <mxPoint x="10" y="-11" as="offset" />
          </mxGeometry>
        </mxCell>
        <mxCell id="mjoHUaqumo3DgvZ4HPl7-20" value="" style="edgeStyle=orthogonalEdgeStyle;rounded=1;orthogonalLoop=1;jettySize=auto;html=1;entryX=0;entryY=0.5;entryDx=0;entryDy=0;exitX=0.973;exitY=0.508;exitDx=0;exitDy=0;fontSize=12;labelBackgroundColor=none;strokeColor=#457B9D;fontColor=#000033;fontFamily=Helvetica;fontStyle=0;exitPerimeter=0;" parent="1" source="mjoHUaqumo3DgvZ4HPl7-3" target="mjoHUaqumo3DgvZ4HPl7-16" edge="1">
          <mxGeometry x="-0.8358" y="5" relative="1" as="geometry">
            <mxPoint x="269" y="880" as="sourcePoint" />
            <mxPoint x="403" y="880" as="targetPoint" />
            <mxPoint as="offset" />
          </mxGeometry>
        </mxCell>
        <mxCell id="mjoHUaqumo3DgvZ4HPl7-55" value="No" style="edgeLabel;html=1;align=center;verticalAlign=middle;resizable=0;points=[];rounded=1;strokeColor=#457B9D;fontColor=#000033;fillColor=#A8DADC;labelBackgroundColor=none;" parent="mjoHUaqumo3DgvZ4HPl7-20" vertex="1" connectable="0">
          <mxGeometry x="-0.5166" relative="1" as="geometry">
            <mxPoint x="-25" y="-9" as="offset" />
          </mxGeometry>
        </mxCell>
        <mxCell id="mjoHUaqumo3DgvZ4HPl7-21" style="edgeStyle=orthogonalEdgeStyle;rounded=1;orthogonalLoop=1;jettySize=auto;html=1;entryX=0;entryY=0.5;entryDx=0;entryDy=0;fontSize=10;labelBackgroundColor=none;strokeColor=#457B9D;fontColor=default;fontFamily=Helvetica;fontStyle=0;" parent="1" target="mjoHUaqumo3DgvZ4HPl7-5" edge="1">
          <mxGeometry relative="1" as="geometry">
            <mxPoint x="514" y="705" as="sourcePoint" />
          </mxGeometry>
        </mxCell>
        <mxCell id="mjoHUaqumo3DgvZ4HPl7-40" value="No" style="edgeLabel;html=1;align=center;verticalAlign=middle;resizable=0;points=[];hachureGap=4;strokeColor=#457B9D;fontFamily=Helvetica;fontColor=#000033;fillColor=#A8DADC;labelBackgroundColor=none;rounded=1;fontStyle=0;fontSize=12;" parent="mjoHUaqumo3DgvZ4HPl7-21" vertex="1" connectable="0">
          <mxGeometry x="-0.4491" relative="1" as="geometry">
            <mxPoint x="-18" y="-11" as="offset" />
          </mxGeometry>
        </mxCell>
        <mxCell id="8HNGC6IebJeWQwQANR_L-26" value="High CPU/RAM" style="rhombus;whiteSpace=wrap;html=1;fontSize=10;fontFamily=Helvetica;strokeWidth=1;rounded=1;shadow=1;labelBackgroundColor=none;fillColor=#A8DADC;strokeColor=#457B9D;fontColor=#1D3557;aspect=fixed;fontStyle=0;" parent="1" vertex="1">
          <mxGeometry x="170" y="655" width="100" height="100" as="geometry" />
        </mxCell>
        <mxCell id="mjoHUaqumo3DgvZ4HPl7-9" value="" style="edgeStyle=orthogonalEdgeStyle;rounded=1;orthogonalLoop=1;jettySize=auto;html=1;exitX=0.5;exitY=1;exitDx=0;exitDy=0;fontSize=10;labelBackgroundColor=none;strokeColor=#457B9D;fontColor=default;fontFamily=Helvetica;fontStyle=0;" parent="1" source="mjoHUaqumo3DgvZ4HPl7-3" target="mjoHUaqumo3DgvZ4HPl7-10" edge="1">
          <mxGeometry relative="1" as="geometry">
            <mxPoint x="250" y="1009.9999999999998" as="targetPoint" />
          </mxGeometry>
        </mxCell>
        <mxCell id="mjoHUaqumo3DgvZ4HPl7-23" value="Yes" style="edgeLabel;html=1;align=center;verticalAlign=middle;resizable=0;points=[];fontSize=12;labelBackgroundColor=none;fontColor=#000033;fontFamily=Helvetica;rounded=1;fontStyle=0;" parent="mjoHUaqumo3DgvZ4HPl7-9" vertex="1" connectable="0">
          <mxGeometry x="0.2879" y="-2" relative="1" as="geometry">
            <mxPoint x="15" y="-44" as="offset" />
          </mxGeometry>
        </mxCell>
        <mxCell id="mjoHUaqumo3DgvZ4HPl7-3" value="Complete tenant&lt;div&gt;Isolation?&lt;/div&gt;" style="rhombus;whiteSpace=wrap;html=1;fontSize=10;fontFamily=Helvetica;strokeWidth=1;rounded=1;shadow=1;labelBackgroundColor=none;fillColor=#A8DADC;strokeColor=#457B9D;fontColor=#1D3557;aspect=fixed;fontStyle=0;" parent="1" vertex="1">
          <mxGeometry x="170" y="810" width="100" height="100" as="geometry" />
        </mxCell>
        <mxCell id="mjoHUaqumo3DgvZ4HPl7-5" value="Standard" style="whiteSpace=wrap;html=1;fontSize=16;fontFamily=Helvetica;strokeWidth=1;rounded=1;shadow=1;labelBackgroundColor=none;fillColor=#76608a;strokeColor=#432D57;fontColor=#ffffff;fontStyle=0;" parent="1" vertex="1">
          <mxGeometry x="610" y="675" width="120" height="60" as="geometry" />
        </mxCell>
        <mxCell id="mjoHUaqumo3DgvZ4HPl7-10" value="Isolated" style="whiteSpace=wrap;html=1;fontSize=16;fontFamily=Helvetica;strokeWidth=1;rounded=1;shadow=1;labelBackgroundColor=none;fillColor=#76608a;strokeColor=#432D57;fontColor=#ffffff;fontStyle=0;" parent="1" vertex="1">
          <mxGeometry x="160" y="990" width="120" height="60" as="geometry" />
        </mxCell>
        <mxCell id="mjoHUaqumo3DgvZ4HPl7-16" value="Premium" style="whiteSpace=wrap;html=1;fontSize=16;fontFamily=Helvetica;strokeWidth=1;rounded=1;shadow=1;labelBackgroundColor=none;fillColor=#76608a;strokeColor=#432D57;fontColor=#ffffff;fontStyle=0;" parent="1" vertex="1">
          <mxGeometry x="404" y="830" width="120" height="60" as="geometry" />
        </mxCell>
        <mxCell id="mjoHUaqumo3DgvZ4HPl7-25" value="" style="edgeStyle=orthogonalEdgeStyle;rounded=1;orthogonalLoop=1;jettySize=auto;html=1;fontSize=10;labelBackgroundColor=none;strokeColor=#457B9D;fontColor=default;fontFamily=Helvetica;fontStyle=0;" parent="1" source="8HNGC6IebJeWQwQANR_L-9" target="mjoHUaqumo3DgvZ4HPl7-24" edge="1">
          <mxGeometry relative="1" as="geometry">
            <mxPoint x="290" y="235" as="sourcePoint" />
            <mxPoint x="510" y="235" as="targetPoint" />
          </mxGeometry>
        </mxCell>
        <mxCell id="mjoHUaqumo3DgvZ4HPl7-26" value="Dev,&lt;div style=&quot;font-size: 12px;&quot;&gt;Test,&lt;/div&gt;&lt;div style=&quot;font-size: 12px;&quot;&gt;Non-critical&lt;/div&gt;" style="edgeLabel;html=1;align=center;verticalAlign=middle;resizable=0;points=[];fontSize=12;labelBackgroundColor=none;fontColor=#000033;fontFamily=Helvetica;rounded=1;fontStyle=0;" parent="mjoHUaqumo3DgvZ4HPl7-25" vertex="1" connectable="0">
          <mxGeometry x="-0.3667" relative="1" as="geometry">
            <mxPoint x="-19" y="-25" as="offset" />
          </mxGeometry>
        </mxCell>
        <mxCell id="mjoHUaqumo3DgvZ4HPl7-29" style="rounded=1;orthogonalLoop=1;jettySize=auto;html=1;entryX=0.5;entryY=0;entryDx=0;entryDy=0;labelBackgroundColor=none;strokeColor=#457B9D;fontColor=default;fontFamily=Helvetica;exitX=0.5;exitY=1;exitDx=0;exitDy=0;fontStyle=0;" parent="1" source="mjoHUaqumo3DgvZ4HPl7-43" target="mjoHUaqumo3DgvZ4HPl7-28" edge="1">
          <mxGeometry relative="1" as="geometry" />
        </mxCell>
        <mxCell id="mjoHUaqumo3DgvZ4HPl7-30" value="Yes" style="edgeLabel;html=1;align=center;verticalAlign=middle;resizable=0;points=[];labelBackgroundColor=none;fontColor=#000033;fontFamily=Helvetica;fontSize=12;rounded=1;fontStyle=0;" parent="mjoHUaqumo3DgvZ4HPl7-29" vertex="1" connectable="0">
          <mxGeometry x="-0.5146" y="-1" relative="1" as="geometry">
            <mxPoint x="14" y="-13" as="offset" />
          </mxGeometry>
        </mxCell>
        <mxCell id="mjoHUaqumo3DgvZ4HPl7-45" style="edgeStyle=orthogonalEdgeStyle;rounded=1;hachureGap=4;orthogonalLoop=1;jettySize=auto;html=1;strokeColor=#457B9D;fontFamily=Helvetica;fontColor=default;labelBackgroundColor=none;fontStyle=0;" parent="1" source="mjoHUaqumo3DgvZ4HPl7-24" target="8HNGC6IebJeWQwQANR_L-22" edge="1">
          <mxGeometry relative="1" as="geometry" />
        </mxCell>
        <mxCell id="mjoHUaqumo3DgvZ4HPl7-46" value="Yes" style="edgeLabel;html=1;align=center;verticalAlign=middle;resizable=0;points=[];rounded=1;hachureGap=4;strokeColor=#457B9D;fontFamily=Helvetica;fontColor=#000033;fillColor=#A8DADC;labelBackgroundColor=none;fontStyle=0;fontSize=12;" parent="mjoHUaqumo3DgvZ4HPl7-45" vertex="1" connectable="0">
          <mxGeometry x="-0.8113" y="3" relative="1" as="geometry">
            <mxPoint x="10" y="-2" as="offset" />
          </mxGeometry>
        </mxCell>
        <mxCell id="mjoHUaqumo3DgvZ4HPl7-24" value="Custom Domain" style="rhombus;whiteSpace=wrap;html=1;labelBackgroundColor=none;fillColor=#A8DADC;strokeColor=#457B9D;fontColor=#1D3557;fontFamily=Helvetica;fontSize=10;fontStyle=0;aspect=fixed;rounded=1;" parent="1" vertex="1">
          <mxGeometry x="414" y="180" width="100" height="100" as="geometry" />
        </mxCell>
        <mxCell id="mjoHUaqumo3DgvZ4HPl7-31" style="rounded=1;orthogonalLoop=1;jettySize=auto;html=1;entryX=1;entryY=0.5;entryDx=0;entryDy=0;edgeStyle=orthogonalEdgeStyle;labelBackgroundColor=none;strokeColor=#457B9D;fontColor=default;fontFamily=Helvetica;fontStyle=0;" parent="1" source="mjoHUaqumo3DgvZ4HPl7-28" target="8HNGC6IebJeWQwQANR_L-22" edge="1">
          <mxGeometry relative="1" as="geometry" />
        </mxCell>
        <mxCell id="mjoHUaqumo3DgvZ4HPl7-32" value="No" style="edgeLabel;html=1;align=center;verticalAlign=middle;resizable=0;points=[];labelBackgroundColor=none;fontColor=#000033;fontFamily=Helvetica;fontSize=12;rounded=1;fontStyle=0;" parent="mjoHUaqumo3DgvZ4HPl7-31" vertex="1" connectable="0">
          <mxGeometry x="-0.7385" y="1" relative="1" as="geometry">
            <mxPoint x="7" y="-9" as="offset" />
          </mxGeometry>
        </mxCell>
        <mxCell id="mjoHUaqumo3DgvZ4HPl7-33" style="edgeStyle=orthogonalEdgeStyle;rounded=1;orthogonalLoop=1;jettySize=auto;html=1;labelBackgroundColor=none;strokeColor=#457B9D;fontColor=default;fontFamily=Helvetica;exitX=1;exitY=0.5;exitDx=0;exitDy=0;fontStyle=0;entryX=1;entryY=0.5;entryDx=0;entryDy=0;" parent="1" source="mjoHUaqumo3DgvZ4HPl7-28" target="mjoHUaqumo3DgvZ4HPl7-16" edge="1">
          <mxGeometry relative="1" as="geometry">
            <mxPoint x="695.0299999999997" y="465" as="sourcePoint" />
            <mxPoint x="650" y="850" as="targetPoint" />
            <Array as="points">
              <mxPoint x="790" y="395" />
              <mxPoint x="790" y="845" />
              <mxPoint x="524" y="845" />
            </Array>
          </mxGeometry>
        </mxCell>
        <mxCell id="mjoHUaqumo3DgvZ4HPl7-54" value="Yes" style="edgeLabel;html=1;align=center;verticalAlign=middle;resizable=0;points=[];rounded=1;strokeColor=#457B9D;fontColor=#000033;fillColor=#A8DADC;fontSize=12;labelBackgroundColor=none;" parent="mjoHUaqumo3DgvZ4HPl7-33" vertex="1" connectable="0">
          <mxGeometry x="-0.9543" y="4" relative="1" as="geometry">
            <mxPoint x="-15" y="-5" as="offset" />
          </mxGeometry>
        </mxCell>
        <mxCell id="mjoHUaqumo3DgvZ4HPl7-28" value="Private&lt;div&gt;Endpoints&lt;/div&gt;" style="rhombus;whiteSpace=wrap;html=1;labelBackgroundColor=none;fillColor=#A8DADC;strokeColor=#457B9D;fontColor=#1D3557;fontFamily=Helvetica;fontSize=10;aspect=fixed;fontStyle=0;rounded=1;" parent="1" vertex="1">
          <mxGeometry x="620" y="345" width="100" height="100" as="geometry" />
        </mxCell>
        <mxCell id="mjoHUaqumo3DgvZ4HPl7-38" value="" style="edgeStyle=orthogonalEdgeStyle;rounded=1;orthogonalLoop=1;jettySize=auto;html=1;entryX=0;entryY=0.5;entryDx=0;entryDy=0;fontSize=10;labelBackgroundColor=none;strokeColor=#457B9D;fontColor=default;fontFamily=Helvetica;fontStyle=0;" parent="1" edge="1">
          <mxGeometry relative="1" as="geometry">
            <mxPoint x="270" y="705" as="sourcePoint" />
            <mxPoint x="414" y="705" as="targetPoint" />
          </mxGeometry>
        </mxCell>
        <mxCell id="mjoHUaqumo3DgvZ4HPl7-39" value="No" style="edgeLabel;html=1;align=center;verticalAlign=middle;resizable=0;points=[];fontSize=12;labelBackgroundColor=none;fontColor=#000033;fontFamily=Helvetica;rounded=1;fontStyle=0;" parent="mjoHUaqumo3DgvZ4HPl7-38" vertex="1" connectable="0">
          <mxGeometry x="-0.4579" y="-2" relative="1" as="geometry">
            <mxPoint x="-31" y="-13" as="offset" />
          </mxGeometry>
        </mxCell>
        <mxCell id="mjoHUaqumo3DgvZ4HPl7-41" style="edgeStyle=orthogonalEdgeStyle;rounded=1;hachureGap=4;orthogonalLoop=1;jettySize=auto;html=1;strokeColor=#457B9D;fontFamily=Helvetica;fontColor=default;labelBackgroundColor=none;fontStyle=0;" parent="1" target="mjoHUaqumo3DgvZ4HPl7-16" edge="1">
          <mxGeometry relative="1" as="geometry">
            <mxPoint x="464" y="755" as="sourcePoint" />
          </mxGeometry>
        </mxCell>
        <mxCell id="mjoHUaqumo3DgvZ4HPl7-42" value="Yes" style="edgeLabel;html=1;align=center;verticalAlign=middle;resizable=0;points=[];hachureGap=4;strokeColor=#457B9D;fontFamily=Helvetica;fontColor=#000033;fillColor=#A8DADC;labelBackgroundColor=none;rounded=1;fontStyle=0;fontSize=12;" parent="mjoHUaqumo3DgvZ4HPl7-41" vertex="1" connectable="0">
          <mxGeometry x="-0.8715" y="-1" relative="1" as="geometry">
            <mxPoint x="15" as="offset" />
          </mxGeometry>
        </mxCell>
        <mxCell id="mjoHUaqumo3DgvZ4HPl7-37" value="Private&amp;nbsp;&lt;div&gt;Endpoints&lt;/div&gt;" style="rhombus;whiteSpace=wrap;html=1;labelBackgroundColor=none;fillColor=#A8DADC;strokeColor=#457B9D;fontColor=#1D3557;fontFamily=Helvetica;fontSize=10;aspect=fixed;fontStyle=0;rounded=1;" parent="1" vertex="1">
          <mxGeometry x="414" y="651" width="100" height="100" as="geometry" />
        </mxCell>
        <mxCell id="mjoHUaqumo3DgvZ4HPl7-44" style="edgeStyle=orthogonalEdgeStyle;rounded=1;hachureGap=4;orthogonalLoop=1;jettySize=auto;html=1;strokeColor=#457B9D;fontFamily=Helvetica;fontColor=default;labelBackgroundColor=none;fontStyle=0;" parent="1" source="mjoHUaqumo3DgvZ4HPl7-43" target="8HNGC6IebJeWQwQANR_L-10" edge="1">
          <mxGeometry relative="1" as="geometry" />
        </mxCell>
        <mxCell id="mjoHUaqumo3DgvZ4HPl7-47" value="No" style="edgeLabel;html=1;align=center;verticalAlign=middle;resizable=0;points=[];rounded=1;hachureGap=4;strokeColor=#457B9D;fontFamily=Helvetica;fontColor=#000033;fillColor=#A8DADC;labelBackgroundColor=none;fontStyle=0;fontSize=12;" parent="mjoHUaqumo3DgvZ4HPl7-44" vertex="1" connectable="0">
          <mxGeometry x="-0.6902" y="3" relative="1" as="geometry">
            <mxPoint x="-11" y="-7" as="offset" />
          </mxGeometry>
        </mxCell>
        <mxCell id="mjoHUaqumo3DgvZ4HPl7-43" value="VNET&lt;div style=&quot;font-size: 10px;&quot;&gt;Integration&lt;/div&gt;" style="rhombus;whiteSpace=wrap;html=1;labelBackgroundColor=none;fillColor=#A8DADC;strokeColor=#457B9D;fontColor=#1D3557;fontFamily=Helvetica;fontSize=10;fontStyle=0;aspect=fixed;rounded=1;" parent="1" vertex="1">
          <mxGeometry x="620" y="180" width="100" height="100" as="geometry" />
        </mxCell>
        <mxCell id="mjoHUaqumo3DgvZ4HPl7-49" style="edgeStyle=orthogonalEdgeStyle;rounded=1;orthogonalLoop=1;jettySize=auto;html=1;strokeColor=#457B9D;fontColor=#1D3557;fillColor=#A8DADC;entryX=0.5;entryY=1;entryDx=0;entryDy=0;" parent="1" source="mjoHUaqumo3DgvZ4HPl7-48" target="8HNGC6IebJeWQwQANR_L-22" edge="1">
          <mxGeometry relative="1" as="geometry">
            <mxPoint x="539.9999999999998" y="440" as="targetPoint" />
          </mxGeometry>
        </mxCell>
        <mxCell id="mjoHUaqumo3DgvZ4HPl7-50" value="No" style="edgeLabel;html=1;align=center;verticalAlign=middle;resizable=0;points=[];strokeColor=#457B9D;fontColor=#000033;fillColor=#A8DADC;rounded=1;fontSize=12;" parent="mjoHUaqumo3DgvZ4HPl7-49" vertex="1" connectable="0">
          <mxGeometry x="-0.783" y="2" relative="1" as="geometry">
            <mxPoint x="11" as="offset" />
          </mxGeometry>
        </mxCell>
        <mxCell id="mjoHUaqumo3DgvZ4HPl7-51" style="edgeStyle=orthogonalEdgeStyle;rounded=1;orthogonalLoop=1;jettySize=auto;html=1;entryX=0.5;entryY=0;entryDx=0;entryDy=0;strokeColor=#457B9D;fontColor=#000033;fillColor=#A8DADC;fontSize=12;" parent="1" source="mjoHUaqumo3DgvZ4HPl7-48" target="mjoHUaqumo3DgvZ4HPl7-5" edge="1">
          <mxGeometry relative="1" as="geometry">
            <Array as="points">
              <mxPoint x="670" y="551" />
            </Array>
          </mxGeometry>
        </mxCell>
        <mxCell id="mjoHUaqumo3DgvZ4HPl7-52" value="Yes" style="edgeLabel;html=1;align=center;verticalAlign=middle;resizable=0;points=[];strokeColor=#457B9D;fontColor=#000033;fillColor=#A8DADC;rounded=1;" parent="mjoHUaqumo3DgvZ4HPl7-51" vertex="1" connectable="0">
          <mxGeometry x="-0.9174" y="2" relative="1" as="geometry">
            <mxPoint x="-5" y="-8" as="offset" />
          </mxGeometry>
        </mxCell>
        <mxCell id="mjoHUaqumo3DgvZ4HPl7-48" value="Staging Slots&lt;div&gt;or&lt;/div&gt;&lt;div&gt;Daily Backups&lt;/div&gt;" style="rhombus;whiteSpace=wrap;html=1;fontSize=10;fontFamily=Helvetica;strokeWidth=1;rounded=1;shadow=1;labelBackgroundColor=none;fillColor=#A8DADC;strokeColor=#457B9D;fontColor=#1D3557;aspect=fixed;fontStyle=0;" parent="1" vertex="1">
          <mxGeometry x="414" y="501" width="100" height="100" as="geometry" />
        </mxCell>
      </root>
    </mxGraphModel>
  </diagram>
  <diagram id="SfIZksV7vS0lqTn1m1YL" name="Page-3">
    <mxGraphModel dx="1434" dy="2125" grid="1" gridSize="10" guides="1" tooltips="1" connect="1" arrows="1" fold="1" page="1" pageScale="1" pageWidth="827" pageHeight="1169" math="0" shadow="0">
      <root>
        <mxCell id="0" />
        <mxCell id="1" parent="0" />
        <mxCell id="bjYaRJj1VPDax2cxkhRb-1" value="" style="edgeStyle=orthogonalEdgeStyle;rounded=1;orthogonalLoop=1;jettySize=auto;html=1;fontSize=10;labelBackgroundColor=none;strokeColor=#457B9D;fontColor=default;fontFamily=Helvetica;fontStyle=0;" parent="1" source="bjYaRJj1VPDax2cxkhRb-2" target="bjYaRJj1VPDax2cxkhRb-7" edge="1">
          <mxGeometry relative="1" as="geometry" />
        </mxCell>
        <mxCell id="bjYaRJj1VPDax2cxkhRb-2" value="Start" style="strokeWidth=1;html=1;shape=mxgraph.flowchart.terminator;whiteSpace=wrap;rounded=1;shadow=1;labelBackgroundColor=none;fontFamily=Helvetica;fontSize=10;align=center;fillColor=#76608a;strokeColor=#432D57;fontColor=#ffffff;fontStyle=0;" parent="1" vertex="1">
          <mxGeometry x="140" y="-20" width="60" height="30" as="geometry" />
        </mxCell>
        <mxCell id="bjYaRJj1VPDax2cxkhRb-3" value="" style="edgeStyle=orthogonalEdgeStyle;rounded=1;orthogonalLoop=1;jettySize=auto;html=1;fontSize=10;labelBackgroundColor=none;strokeColor=#457B9D;fontColor=default;fontFamily=Helvetica;fontStyle=0;" parent="1" source="bjYaRJj1VPDax2cxkhRb-39" target="bjYaRJj1VPDax2cxkhRb-52" edge="1">
          <mxGeometry relative="1" as="geometry" />
        </mxCell>
        <mxCell id="bjYaRJj1VPDax2cxkhRb-4" value="No" style="edgeLabel;html=1;align=center;verticalAlign=middle;resizable=0;points=[];labelBackgroundColor=none;fontColor=#000033;fontFamily=Helvetica;fontSize=12;rounded=1;fontStyle=0;" parent="bjYaRJj1VPDax2cxkhRb-3" vertex="1" connectable="0">
          <mxGeometry x="-0.6398" relative="1" as="geometry">
            <mxPoint x="10" y="-7" as="offset" />
          </mxGeometry>
        </mxCell>
        <mxCell id="bjYaRJj1VPDax2cxkhRb-5" value="" style="edgeStyle=orthogonalEdgeStyle;rounded=1;orthogonalLoop=1;jettySize=auto;html=1;fontSize=10;labelBackgroundColor=none;strokeColor=#457B9D;fontColor=default;fontFamily=Helvetica;fontStyle=0;" parent="1" source="bjYaRJj1VPDax2cxkhRb-7" target="bjYaRJj1VPDax2cxkhRb-13" edge="1">
          <mxGeometry relative="1" as="geometry" />
        </mxCell>
        <mxCell id="bjYaRJj1VPDax2cxkhRb-6" value="Production,&lt;div style=&quot;font-size: 12px;&quot;&gt;Business-critical&lt;/div&gt;" style="edgeLabel;html=1;align=center;verticalAlign=middle;resizable=0;points=[];fontSize=12;labelBackgroundColor=none;fontColor=#000033;fontFamily=Helvetica;rounded=1;fontStyle=0;" parent="bjYaRJj1VPDax2cxkhRb-5" vertex="1" connectable="0">
          <mxGeometry x="-0.475" y="1" relative="1" as="geometry">
            <mxPoint x="11" y="-22" as="offset" />
          </mxGeometry>
        </mxCell>
        <mxCell id="bjYaRJj1VPDax2cxkhRb-7" value="&lt;div style=&quot;font-size: 10px;&quot;&gt;Workload&lt;/div&gt;Purpose" style="rhombus;whiteSpace=wrap;html=1;fontSize=10;fontFamily=Helvetica;strokeWidth=1;rounded=1;shadow=1;labelBackgroundColor=none;fillColor=#A8DADC;strokeColor=#457B9D;fontColor=#1D3557;fontStyle=0;aspect=fixed;" parent="1" vertex="1">
          <mxGeometry x="120" y="85" width="100" height="100" as="geometry" />
        </mxCell>
        <mxCell id="bjYaRJj1VPDax2cxkhRb-8" value="Free" style="whiteSpace=wrap;html=1;fontSize=16;fontFamily=Helvetica;strokeWidth=1;rounded=1;shadow=1;labelBackgroundColor=none;fillColor=#76608a;strokeColor=#432D57;fontColor=#ffffff;fontStyle=0;" parent="1" vertex="1">
          <mxGeometry x="110" y="570" width="120" height="60" as="geometry" />
        </mxCell>
        <mxCell id="bjYaRJj1VPDax2cxkhRb-9" style="rounded=1;orthogonalLoop=1;jettySize=auto;html=1;fontSize=10;labelBackgroundColor=none;strokeColor=#457B9D;fontColor=default;fontFamily=Helvetica;fontStyle=0;edgeStyle=orthogonalEdgeStyle;exitX=0.5;exitY=1;exitDx=0;exitDy=0;entryX=0.5;entryY=0;entryDx=0;entryDy=0;" parent="1" source="bjYaRJj1VPDax2cxkhRb-13" target="bjYaRJj1VPDax2cxkhRb-57" edge="1">
          <mxGeometry relative="1" as="geometry">
            <mxPoint x="400" y="395" as="targetPoint" />
            <Array as="points">
              <mxPoint x="370" y="185" />
              <mxPoint x="370" y="230" />
              <mxPoint x="570" y="230" />
            </Array>
          </mxGeometry>
        </mxCell>
        <mxCell id="bjYaRJj1VPDax2cxkhRb-10" value="Small Scale" style="edgeLabel;html=1;align=center;verticalAlign=middle;resizable=0;points=[];fontSize=12;labelBackgroundColor=none;fontColor=#000033;fontFamily=Helvetica;rounded=1;fontStyle=0;" parent="bjYaRJj1VPDax2cxkhRb-9" vertex="1" connectable="0">
          <mxGeometry x="-0.712" relative="1" as="geometry">
            <mxPoint x="40" y="-34" as="offset" />
          </mxGeometry>
        </mxCell>
        <mxCell id="bjYaRJj1VPDax2cxkhRb-11" value="" style="edgeStyle=orthogonalEdgeStyle;rounded=1;orthogonalLoop=1;jettySize=auto;html=1;fontSize=10;labelBackgroundColor=none;strokeColor=#457B9D;fontColor=default;fontFamily=Helvetica;fontStyle=0;" parent="1" source="bjYaRJj1VPDax2cxkhRb-13" target="bjYaRJj1VPDax2cxkhRb-18" edge="1">
          <mxGeometry relative="1" as="geometry" />
        </mxCell>
        <mxCell id="bjYaRJj1VPDax2cxkhRb-12" value="Large Scale" style="edgeLabel;html=1;align=center;verticalAlign=middle;resizable=0;points=[];hachureGap=4;strokeColor=#457B9D;fontFamily=Helvetica;fontColor=#000033;fillColor=#A8DADC;fontSize=12;labelBackgroundColor=none;rounded=1;fontStyle=0;" parent="bjYaRJj1VPDax2cxkhRb-11" vertex="1" connectable="0">
          <mxGeometry x="-0.3555" relative="1" as="geometry">
            <mxPoint x="-2" y="-13" as="offset" />
          </mxGeometry>
        </mxCell>
        <mxCell id="bjYaRJj1VPDax2cxkhRb-13" value="Traffic Load" style="rhombus;whiteSpace=wrap;html=1;fontSize=10;fontFamily=Helvetica;strokeWidth=1;rounded=1;shadow=1;labelBackgroundColor=none;fillColor=#A8DADC;strokeColor=#457B9D;fontColor=#1D3557;aspect=fixed;fontStyle=0;" parent="1" vertex="1">
          <mxGeometry x="318" y="85" width="100" height="100" as="geometry" />
        </mxCell>
        <mxCell id="bjYaRJj1VPDax2cxkhRb-14" value="" style="rounded=1;orthogonalLoop=1;jettySize=auto;html=1;fontSize=10;labelBackgroundColor=none;strokeColor=#457B9D;fontColor=default;fontFamily=Helvetica;fontStyle=0;" parent="1" source="bjYaRJj1VPDax2cxkhRb-18" target="bjYaRJj1VPDax2cxkhRb-57" edge="1">
          <mxGeometry relative="1" as="geometry" />
        </mxCell>
        <mxCell id="bjYaRJj1VPDax2cxkhRb-15" value="No" style="edgeLabel;html=1;align=center;verticalAlign=middle;resizable=0;points=[];fontSize=12;labelBackgroundColor=none;fontColor=#000033;fontFamily=Helvetica;rounded=1;fontStyle=0;" parent="bjYaRJj1VPDax2cxkhRb-14" vertex="1" connectable="0">
          <mxGeometry x="-0.5" y="2" relative="1" as="geometry">
            <mxPoint x="12" y="-13" as="offset" />
          </mxGeometry>
        </mxCell>
        <mxCell id="bjYaRJj1VPDax2cxkhRb-16" value="" style="edgeStyle=orthogonalEdgeStyle;rounded=1;orthogonalLoop=1;jettySize=auto;html=1;fontSize=10;labelBackgroundColor=none;strokeColor=#457B9D;fontColor=default;fontFamily=Helvetica;fontStyle=0;" parent="1" source="bjYaRJj1VPDax2cxkhRb-18" target="bjYaRJj1VPDax2cxkhRb-26" edge="1">
          <mxGeometry relative="1" as="geometry" />
        </mxCell>
        <mxCell id="bjYaRJj1VPDax2cxkhRb-17" value="Yes" style="edgeLabel;html=1;align=center;verticalAlign=middle;resizable=0;points=[];fontSize=12;labelBackgroundColor=none;fontColor=#000033;fontFamily=Helvetica;rounded=1;fontStyle=0;" parent="bjYaRJj1VPDax2cxkhRb-16" vertex="1" connectable="0">
          <mxGeometry x="-0.4362" relative="1" as="geometry">
            <mxPoint x="-18" y="-13" as="offset" />
          </mxGeometry>
        </mxCell>
        <mxCell id="bjYaRJj1VPDax2cxkhRb-18" value="Auto-scaling" style="rhombus;whiteSpace=wrap;html=1;fontSize=10;fontFamily=Helvetica;strokeWidth=1;rounded=1;shadow=1;labelBackgroundColor=none;fillColor=#A8DADC;strokeColor=#457B9D;fontColor=#1D3557;aspect=fixed;fontStyle=0;" parent="1" vertex="1">
          <mxGeometry x="520" y="85" width="100" height="100" as="geometry" />
        </mxCell>
        <mxCell id="bjYaRJj1VPDax2cxkhRb-19" value="Basic" style="whiteSpace=wrap;html=1;fontSize=16;fontFamily=Helvetica;strokeWidth=1;rounded=1;shadow=1;labelBackgroundColor=none;fillColor=#76608a;strokeColor=#432D57;fontColor=#ffffff;fontStyle=0;" parent="1" vertex="1">
          <mxGeometry x="320" y="280" width="120" height="60" as="geometry" />
        </mxCell>
        <mxCell id="bjYaRJj1VPDax2cxkhRb-20" value="" style="edgeStyle=orthogonalEdgeStyle;rounded=1;orthogonalLoop=1;jettySize=auto;html=1;fontSize=10;labelBackgroundColor=none;strokeColor=#457B9D;fontColor=default;fontFamily=Helvetica;fontStyle=0;exitX=1;exitY=0.5;exitDx=0;exitDy=0;" parent="1" source="bjYaRJj1VPDax2cxkhRb-26" target="bjYaRJj1VPDax2cxkhRb-29" edge="1">
          <mxGeometry relative="1" as="geometry">
            <mxPoint x="220" y="755" as="sourcePoint" />
          </mxGeometry>
        </mxCell>
        <mxCell id="bjYaRJj1VPDax2cxkhRb-21" value="Yes" style="edgeLabel;html=1;align=center;verticalAlign=middle;resizable=0;points=[];rounded=1;strokeColor=#457B9D;fontColor=#1D3557;fillColor=#A8DADC;fontSize=12;" parent="bjYaRJj1VPDax2cxkhRb-20" vertex="1" connectable="0">
          <mxGeometry x="-0.3219" y="2" relative="1" as="geometry">
            <mxPoint x="-25" y="-11" as="offset" />
          </mxGeometry>
        </mxCell>
        <mxCell id="bjYaRJj1VPDax2cxkhRb-22" value="" style="rounded=1;orthogonalLoop=1;jettySize=auto;html=1;entryX=0.5;entryY=0;entryDx=0;entryDy=0;exitX=0.5;exitY=1;exitDx=0;exitDy=0;fontSize=12;labelBackgroundColor=none;strokeColor=#457B9D;fontColor=#000033;fontFamily=Helvetica;fontStyle=0;" parent="1" source="bjYaRJj1VPDax2cxkhRb-29" target="bjYaRJj1VPDax2cxkhRb-32" edge="1">
          <mxGeometry x="-0.8358" y="5" relative="1" as="geometry">
            <mxPoint x="269" y="880" as="sourcePoint" />
            <mxPoint x="403" y="880" as="targetPoint" />
            <mxPoint as="offset" />
          </mxGeometry>
        </mxCell>
        <mxCell id="bjYaRJj1VPDax2cxkhRb-23" value="No" style="edgeLabel;html=1;align=center;verticalAlign=middle;resizable=0;points=[];rounded=1;strokeColor=#457B9D;fontColor=#000033;fillColor=#A8DADC;labelBackgroundColor=none;fontSize=12;" parent="bjYaRJj1VPDax2cxkhRb-22" vertex="1" connectable="0">
          <mxGeometry x="-0.5166" relative="1" as="geometry">
            <mxPoint x="13" y="-55" as="offset" />
          </mxGeometry>
        </mxCell>
        <mxCell id="bjYaRJj1VPDax2cxkhRb-24" style="rounded=1;orthogonalLoop=1;jettySize=auto;html=1;entryX=0.5;entryY=0;entryDx=0;entryDy=0;fontSize=10;labelBackgroundColor=none;strokeColor=#457B9D;fontColor=default;fontFamily=Helvetica;fontStyle=0;" parent="1" source="bjYaRJj1VPDax2cxkhRb-49" target="bjYaRJj1VPDax2cxkhRb-30" edge="1">
          <mxGeometry relative="1" as="geometry">
            <mxPoint x="514" y="705" as="sourcePoint" />
          </mxGeometry>
        </mxCell>
        <mxCell id="bjYaRJj1VPDax2cxkhRb-25" value="No" style="edgeLabel;html=1;align=center;verticalAlign=middle;resizable=0;points=[];hachureGap=4;strokeColor=#457B9D;fontFamily=Helvetica;fontColor=#000033;fillColor=#A8DADC;labelBackgroundColor=none;rounded=1;fontStyle=0;fontSize=12;" parent="bjYaRJj1VPDax2cxkhRb-24" vertex="1" connectable="0">
          <mxGeometry x="-0.4491" relative="1" as="geometry">
            <mxPoint x="12" y="-15" as="offset" />
          </mxGeometry>
        </mxCell>
        <mxCell id="bjYaRJj1VPDax2cxkhRb-26" value="High CPU/RAM" style="rhombus;whiteSpace=wrap;html=1;fontSize=10;fontFamily=Helvetica;strokeWidth=1;rounded=1;shadow=1;labelBackgroundColor=none;fillColor=#A8DADC;strokeColor=#457B9D;fontColor=#1D3557;aspect=fixed;fontStyle=0;" parent="1" vertex="1">
          <mxGeometry x="713" y="85" width="100" height="100" as="geometry" />
        </mxCell>
        <mxCell id="bjYaRJj1VPDax2cxkhRb-27" value="" style="edgeStyle=orthogonalEdgeStyle;rounded=1;orthogonalLoop=1;jettySize=auto;html=1;exitX=0.5;exitY=0;exitDx=0;exitDy=0;fontSize=10;labelBackgroundColor=none;strokeColor=#457B9D;fontColor=default;fontFamily=Helvetica;fontStyle=0;" parent="1" source="bjYaRJj1VPDax2cxkhRb-29" target="bjYaRJj1VPDax2cxkhRb-31" edge="1">
          <mxGeometry relative="1" as="geometry">
            <mxPoint x="250" y="1009.9999999999998" as="targetPoint" />
          </mxGeometry>
        </mxCell>
        <mxCell id="bjYaRJj1VPDax2cxkhRb-28" value="Yes" style="edgeLabel;html=1;align=center;verticalAlign=middle;resizable=0;points=[];fontSize=12;labelBackgroundColor=none;fontColor=#000033;fontFamily=Helvetica;rounded=1;fontStyle=0;" parent="bjYaRJj1VPDax2cxkhRb-27" vertex="1" connectable="0">
          <mxGeometry x="0.2879" y="-2" relative="1" as="geometry">
            <mxPoint x="14" y="37" as="offset" />
          </mxGeometry>
        </mxCell>
        <mxCell id="bjYaRJj1VPDax2cxkhRb-29" value="Complete tenant&lt;div&gt;Isolation?&lt;/div&gt;" style="rhombus;whiteSpace=wrap;html=1;fontSize=10;fontFamily=Helvetica;strokeWidth=1;rounded=1;shadow=1;labelBackgroundColor=none;fillColor=#A8DADC;strokeColor=#457B9D;fontColor=#1D3557;aspect=fixed;fontStyle=0;" parent="1" vertex="1">
          <mxGeometry x="910" y="85" width="100" height="100" as="geometry" />
        </mxCell>
        <mxCell id="bjYaRJj1VPDax2cxkhRb-30" value="Standard" style="whiteSpace=wrap;html=1;fontSize=16;fontFamily=Helvetica;strokeWidth=1;rounded=1;shadow=1;labelBackgroundColor=none;fillColor=#76608a;strokeColor=#432D57;fontColor=#ffffff;fontStyle=0;" parent="1" vertex="1">
          <mxGeometry x="703" y="440" width="120" height="60" as="geometry" />
        </mxCell>
        <mxCell id="bjYaRJj1VPDax2cxkhRb-31" value="Isolated" style="whiteSpace=wrap;html=1;fontSize=16;fontFamily=Helvetica;strokeWidth=1;rounded=1;shadow=1;labelBackgroundColor=none;fillColor=#76608a;strokeColor=#432D57;fontColor=#ffffff;fontStyle=0;" parent="1" vertex="1">
          <mxGeometry x="900" y="-40" width="120" height="60" as="geometry" />
        </mxCell>
        <mxCell id="bjYaRJj1VPDax2cxkhRb-32" value="Premium" style="whiteSpace=wrap;html=1;fontSize=16;fontFamily=Helvetica;strokeWidth=1;rounded=1;shadow=1;labelBackgroundColor=none;fillColor=#76608a;strokeColor=#432D57;fontColor=#ffffff;fontStyle=0;" parent="1" vertex="1">
          <mxGeometry x="900" y="440" width="120" height="60" as="geometry" />
        </mxCell>
        <mxCell id="bjYaRJj1VPDax2cxkhRb-33" value="" style="edgeStyle=orthogonalEdgeStyle;rounded=1;orthogonalLoop=1;jettySize=auto;html=1;fontSize=10;labelBackgroundColor=none;strokeColor=#457B9D;fontColor=default;fontFamily=Helvetica;fontStyle=0;" parent="1" source="bjYaRJj1VPDax2cxkhRb-7" target="bjYaRJj1VPDax2cxkhRb-39" edge="1">
          <mxGeometry relative="1" as="geometry">
            <mxPoint x="290" y="235" as="sourcePoint" />
            <mxPoint x="510" y="235" as="targetPoint" />
          </mxGeometry>
        </mxCell>
        <mxCell id="bjYaRJj1VPDax2cxkhRb-34" value="Development,&lt;div style=&quot;font-size: 12px;&quot;&gt;Test,&lt;/div&gt;&lt;div style=&quot;font-size: 12px;&quot;&gt;Non-critical&lt;/div&gt;" style="edgeLabel;html=1;align=center;verticalAlign=middle;resizable=0;points=[];fontSize=12;labelBackgroundColor=none;fontColor=#000033;fontFamily=Helvetica;rounded=1;fontStyle=0;" parent="bjYaRJj1VPDax2cxkhRb-33" vertex="1" connectable="0">
          <mxGeometry x="-0.3667" relative="1" as="geometry">
            <mxPoint x="40" y="-2" as="offset" />
          </mxGeometry>
        </mxCell>
        <mxCell id="bjYaRJj1VPDax2cxkhRb-35" style="rounded=1;orthogonalLoop=1;jettySize=auto;html=1;labelBackgroundColor=none;strokeColor=#457B9D;fontColor=default;fontFamily=Helvetica;exitX=1;exitY=0.5;exitDx=0;exitDy=0;fontStyle=0;" parent="1" source="bjYaRJj1VPDax2cxkhRb-52" target="bjYaRJj1VPDax2cxkhRb-44" edge="1">
          <mxGeometry relative="1" as="geometry" />
        </mxCell>
        <mxCell id="bjYaRJj1VPDax2cxkhRb-36" value="Yes" style="edgeLabel;html=1;align=center;verticalAlign=middle;resizable=0;points=[];labelBackgroundColor=none;fontColor=#000033;fontFamily=Helvetica;fontSize=12;rounded=1;fontStyle=0;" parent="bjYaRJj1VPDax2cxkhRb-35" vertex="1" connectable="0">
          <mxGeometry x="-0.5146" y="-1" relative="1" as="geometry">
            <mxPoint x="-19" y="-11" as="offset" />
          </mxGeometry>
        </mxCell>
        <mxCell id="bjYaRJj1VPDax2cxkhRb-37" style="edgeStyle=orthogonalEdgeStyle;rounded=1;hachureGap=4;orthogonalLoop=1;jettySize=auto;html=1;strokeColor=#457B9D;fontFamily=Helvetica;fontColor=default;labelBackgroundColor=none;fontStyle=0;" parent="1" source="bjYaRJj1VPDax2cxkhRb-39" target="bjYaRJj1VPDax2cxkhRb-19" edge="1">
          <mxGeometry relative="1" as="geometry" />
        </mxCell>
        <mxCell id="bjYaRJj1VPDax2cxkhRb-38" value="Yes" style="edgeLabel;html=1;align=center;verticalAlign=middle;resizable=0;points=[];rounded=1;hachureGap=4;strokeColor=#457B9D;fontFamily=Helvetica;fontColor=#000033;fillColor=#A8DADC;labelBackgroundColor=none;fontStyle=0;fontSize=12;" parent="bjYaRJj1VPDax2cxkhRb-37" vertex="1" connectable="0">
          <mxGeometry x="-0.8113" y="3" relative="1" as="geometry">
            <mxPoint x="2" y="-7" as="offset" />
          </mxGeometry>
        </mxCell>
        <mxCell id="bjYaRJj1VPDax2cxkhRb-39" value="Custom Domain" style="rhombus;whiteSpace=wrap;html=1;labelBackgroundColor=none;fillColor=#A8DADC;strokeColor=#457B9D;fontColor=#1D3557;fontFamily=Helvetica;fontSize=10;fontStyle=0;aspect=fixed;rounded=1;" parent="1" vertex="1">
          <mxGeometry x="120" y="260" width="100" height="100" as="geometry" />
        </mxCell>
        <mxCell id="bjYaRJj1VPDax2cxkhRb-40" style="rounded=1;orthogonalLoop=1;jettySize=auto;html=1;entryX=0.5;entryY=1;entryDx=0;entryDy=0;edgeStyle=orthogonalEdgeStyle;labelBackgroundColor=none;strokeColor=#457B9D;fontColor=default;fontFamily=Helvetica;fontStyle=0;" parent="1" source="bjYaRJj1VPDax2cxkhRb-44" target="bjYaRJj1VPDax2cxkhRb-19" edge="1">
          <mxGeometry relative="1" as="geometry" />
        </mxCell>
        <mxCell id="bjYaRJj1VPDax2cxkhRb-41" value="No" style="edgeLabel;html=1;align=center;verticalAlign=middle;resizable=0;points=[];labelBackgroundColor=none;fontColor=#000033;fontFamily=Helvetica;fontSize=12;rounded=1;fontStyle=0;" parent="bjYaRJj1VPDax2cxkhRb-40" vertex="1" connectable="0">
          <mxGeometry x="-0.7385" y="1" relative="1" as="geometry">
            <mxPoint x="12" y="3" as="offset" />
          </mxGeometry>
        </mxCell>
        <mxCell id="bjYaRJj1VPDax2cxkhRb-42" style="rounded=1;orthogonalLoop=1;jettySize=auto;html=1;labelBackgroundColor=none;strokeColor=#457B9D;fontColor=default;fontFamily=Helvetica;exitX=1;exitY=0.5;exitDx=0;exitDy=0;fontStyle=0;entryX=0.5;entryY=1;entryDx=0;entryDy=0;edgeStyle=orthogonalEdgeStyle;" parent="1" source="bjYaRJj1VPDax2cxkhRb-44" target="bjYaRJj1VPDax2cxkhRb-32" edge="1">
          <mxGeometry relative="1" as="geometry">
            <mxPoint x="695.0299999999997" y="465" as="sourcePoint" />
            <mxPoint x="650" y="850" as="targetPoint" />
            <Array as="points">
              <mxPoint x="480" y="470" />
              <mxPoint x="480" y="540" />
              <mxPoint x="960" y="540" />
            </Array>
          </mxGeometry>
        </mxCell>
        <mxCell id="bjYaRJj1VPDax2cxkhRb-43" value="Yes" style="edgeLabel;html=1;align=center;verticalAlign=middle;resizable=0;points=[];rounded=1;strokeColor=#457B9D;fontColor=#000033;fillColor=#A8DADC;fontSize=12;labelBackgroundColor=none;" parent="bjYaRJj1VPDax2cxkhRb-42" vertex="1" connectable="0">
          <mxGeometry x="-0.9543" y="4" relative="1" as="geometry">
            <mxPoint x="-6" y="-6" as="offset" />
          </mxGeometry>
        </mxCell>
        <mxCell id="bjYaRJj1VPDax2cxkhRb-44" value="Private&lt;div&gt;Endpoints&lt;/div&gt;" style="rhombus;whiteSpace=wrap;html=1;labelBackgroundColor=none;fillColor=#A8DADC;strokeColor=#457B9D;fontColor=#1D3557;fontFamily=Helvetica;fontSize=10;aspect=fixed;fontStyle=0;rounded=1;" parent="1" vertex="1">
          <mxGeometry x="330" y="420" width="100" height="100" as="geometry" />
        </mxCell>
        <mxCell id="bjYaRJj1VPDax2cxkhRb-45" value="" style="edgeStyle=orthogonalEdgeStyle;rounded=1;orthogonalLoop=1;jettySize=auto;html=1;fontSize=10;labelBackgroundColor=none;strokeColor=#457B9D;fontColor=default;fontFamily=Helvetica;fontStyle=0;exitX=0.5;exitY=1;exitDx=0;exitDy=0;" parent="1" source="bjYaRJj1VPDax2cxkhRb-26" target="bjYaRJj1VPDax2cxkhRb-49" edge="1">
          <mxGeometry relative="1" as="geometry">
            <mxPoint x="270" y="705" as="sourcePoint" />
            <mxPoint x="414" y="705" as="targetPoint" />
          </mxGeometry>
        </mxCell>
        <mxCell id="bjYaRJj1VPDax2cxkhRb-46" value="No" style="edgeLabel;html=1;align=center;verticalAlign=middle;resizable=0;points=[];fontSize=12;labelBackgroundColor=none;fontColor=#000033;fontFamily=Helvetica;rounded=1;fontStyle=0;" parent="bjYaRJj1VPDax2cxkhRb-45" vertex="1" connectable="0">
          <mxGeometry x="-0.4579" y="-2" relative="1" as="geometry">
            <mxPoint x="16" y="-13" as="offset" />
          </mxGeometry>
        </mxCell>
        <mxCell id="bjYaRJj1VPDax2cxkhRb-47" style="rounded=1;hachureGap=4;orthogonalLoop=1;jettySize=auto;html=1;strokeColor=#457B9D;fontFamily=Helvetica;fontColor=default;labelBackgroundColor=none;fontStyle=0;exitX=1;exitY=0.5;exitDx=0;exitDy=0;entryX=0.5;entryY=0;entryDx=0;entryDy=0;edgeStyle=orthogonalEdgeStyle;" parent="1" source="bjYaRJj1VPDax2cxkhRb-49" target="bjYaRJj1VPDax2cxkhRb-32" edge="1">
          <mxGeometry relative="1" as="geometry">
            <mxPoint x="464" y="755" as="sourcePoint" />
          </mxGeometry>
        </mxCell>
        <mxCell id="bjYaRJj1VPDax2cxkhRb-48" value="Yes" style="edgeLabel;html=1;align=center;verticalAlign=middle;resizable=0;points=[];hachureGap=4;strokeColor=#457B9D;fontFamily=Helvetica;fontColor=#000033;fillColor=#A8DADC;labelBackgroundColor=none;rounded=1;fontStyle=0;fontSize=12;" parent="bjYaRJj1VPDax2cxkhRb-47" vertex="1" connectable="0">
          <mxGeometry x="-0.8715" y="-1" relative="1" as="geometry">
            <mxPoint x="-8" y="-11" as="offset" />
          </mxGeometry>
        </mxCell>
        <mxCell id="bjYaRJj1VPDax2cxkhRb-49" value="Private&amp;nbsp;&lt;div&gt;Endpoints&lt;/div&gt;" style="rhombus;whiteSpace=wrap;html=1;labelBackgroundColor=none;fillColor=#A8DADC;strokeColor=#457B9D;fontColor=#1D3557;fontFamily=Helvetica;fontSize=10;aspect=fixed;fontStyle=0;rounded=1;" parent="1" vertex="1">
          <mxGeometry x="713" y="260" width="100" height="100" as="geometry" />
        </mxCell>
        <mxCell id="bjYaRJj1VPDax2cxkhRb-50" style="edgeStyle=orthogonalEdgeStyle;rounded=1;hachureGap=4;orthogonalLoop=1;jettySize=auto;html=1;strokeColor=#457B9D;fontFamily=Helvetica;fontColor=default;labelBackgroundColor=none;fontStyle=0;" parent="1" source="bjYaRJj1VPDax2cxkhRb-52" target="bjYaRJj1VPDax2cxkhRb-8" edge="1">
          <mxGeometry relative="1" as="geometry" />
        </mxCell>
        <mxCell id="bjYaRJj1VPDax2cxkhRb-51" value="No" style="edgeLabel;html=1;align=center;verticalAlign=middle;resizable=0;points=[];rounded=1;hachureGap=4;strokeColor=#457B9D;fontFamily=Helvetica;fontColor=#000033;fillColor=#A8DADC;labelBackgroundColor=none;fontStyle=0;fontSize=12;" parent="bjYaRJj1VPDax2cxkhRb-50" vertex="1" connectable="0">
          <mxGeometry x="-0.6902" y="3" relative="1" as="geometry">
            <mxPoint x="10" y="-4" as="offset" />
          </mxGeometry>
        </mxCell>
        <mxCell id="bjYaRJj1VPDax2cxkhRb-52" value="VNET&lt;div style=&quot;font-size: 10px;&quot;&gt;Integration&lt;/div&gt;" style="rhombus;whiteSpace=wrap;html=1;labelBackgroundColor=none;fillColor=#A8DADC;strokeColor=#457B9D;fontColor=#1D3557;fontFamily=Helvetica;fontSize=10;fontStyle=0;aspect=fixed;rounded=1;" parent="1" vertex="1">
          <mxGeometry x="120" y="420" width="100" height="100" as="geometry" />
        </mxCell>
        <mxCell id="bjYaRJj1VPDax2cxkhRb-53" style="rounded=1;orthogonalLoop=1;jettySize=auto;html=1;strokeColor=#457B9D;fontColor=#1D3557;fillColor=#A8DADC;entryX=1;entryY=0.5;entryDx=0;entryDy=0;" parent="1" source="bjYaRJj1VPDax2cxkhRb-57" target="bjYaRJj1VPDax2cxkhRb-19" edge="1">
          <mxGeometry relative="1" as="geometry">
            <mxPoint x="539.9999999999998" y="440" as="targetPoint" />
          </mxGeometry>
        </mxCell>
        <mxCell id="bjYaRJj1VPDax2cxkhRb-54" value="No" style="edgeLabel;html=1;align=center;verticalAlign=middle;resizable=0;points=[];strokeColor=#457B9D;fontColor=#000033;fillColor=#A8DADC;rounded=1;fontSize=12;" parent="bjYaRJj1VPDax2cxkhRb-53" vertex="1" connectable="0">
          <mxGeometry x="-0.783" y="2" relative="1" as="geometry">
            <mxPoint x="3" y="-12" as="offset" />
          </mxGeometry>
        </mxCell>
        <mxCell id="bjYaRJj1VPDax2cxkhRb-55" style="rounded=1;orthogonalLoop=1;jettySize=auto;html=1;entryX=0;entryY=0.5;entryDx=0;entryDy=0;strokeColor=#457B9D;fontColor=#000033;fillColor=#A8DADC;fontSize=12;edgeStyle=orthogonalEdgeStyle;" parent="1" source="bjYaRJj1VPDax2cxkhRb-57" target="bjYaRJj1VPDax2cxkhRb-30" edge="1">
          <mxGeometry relative="1" as="geometry" />
        </mxCell>
        <mxCell id="bjYaRJj1VPDax2cxkhRb-56" value="Yes" style="edgeLabel;html=1;align=center;verticalAlign=middle;resizable=0;points=[];strokeColor=#457B9D;fontColor=#000033;fillColor=#A8DADC;rounded=1;fontSize=12;" parent="bjYaRJj1VPDax2cxkhRb-55" vertex="1" connectable="0">
          <mxGeometry x="-0.9174" y="2" relative="1" as="geometry">
            <mxPoint x="-5" y="-8" as="offset" />
          </mxGeometry>
        </mxCell>
        <mxCell id="bjYaRJj1VPDax2cxkhRb-57" value="Staging Slots&lt;div&gt;or&lt;/div&gt;&lt;div&gt;Daily Backups&lt;/div&gt;" style="rhombus;whiteSpace=wrap;html=1;fontSize=10;fontFamily=Helvetica;strokeWidth=1;rounded=1;shadow=1;labelBackgroundColor=none;fillColor=#A8DADC;strokeColor=#457B9D;fontColor=#1D3557;aspect=fixed;fontStyle=0;" parent="1" vertex="1">
          <mxGeometry x="520" y="260" width="100" height="100" as="geometry" />
        </mxCell>
      </root>
    </mxGraphModel>
  </diagram>
</mxfile>
